# xmcd
#
# Track frame offsets:
# 150
# 12419
# 24425
# 38745
# 51190
# 66555
# 80474
# 93166
# 105241
# 116744
#
# Disc length: 1696 seconds
#
#
# Revision: 1
# Processed by: cddbd v1.5.1PL2 Copyright (c) Steve Scherf et al.
# Submitted via: FreeRIP 2.944 
#
DISCID=77069e0a
DTITLE=Ronnie McDowell - American Music
DYEAR=1989
DGENRE=Country
TTITLE0=Sea Of Heartbreak
TTITLE1=Hot Burning Flames
TTITLE2=Love Ya Babe
TTITLE3=Who'll Turn Out The Lights
TTITLE4=Under These Conditions
TTITLE5=String Around My Heart
TTITLE6=American Music
TTITLE7=Hey Hey Miss Lucy
TTITLE8=Did She Ask About Me
TTITLE9=Honky Tonk Women Love Redneck Men
EXTD=
EXTT0=
EXTT1=
EXTT2=
EXTT3=
EXTT4=
EXTT5=
EXTT6=
EXTT7=
EXTT8=
EXTT9=
PLAYORDER=
